<?xml version="1.0" encoding="UTF-8"?>
<svg version="1.1" xmlns="http://www.w3.org/2000/svg" width="556" height="904">
<path d="M0 0 C1.15442345 -0.00855011 1.15442345 -0.00855011 2.33216858 -0.01727295 C3.95491185 -0.02666132 5.57767366 -0.03323218 7.20043945 -0.03710938 C9.62291995 -0.04672716 12.04451784 -0.07777254 14.46679688 -0.109375 C28.81046236 -0.20766124 42.36917307 1.86485199 56.16015625 5.890625 C57.03430176 6.14481201 57.90844727 6.39899902 58.80908203 6.66088867 C83.86718447 14.23453805 104.88644726 28.26632572 123.72265625 46.203125 C124.55410156 46.95851562 125.38554687 47.71390625 126.2421875 48.4921875 C153.16511977 73.80583303 169.26125049 112.71169709 171.72265625 149.203125 C171.86634001 154.45438479 171.86653678 159.70368458 171.86309814 164.95637512 C171.86568581 166.5463376 171.86870008 168.13629942 171.87210155 169.72626036 C171.88012791 174.07553633 171.88195867 178.42479575 171.88269901 182.77407825 C171.88455725 187.47305735 171.8921085 192.17202802 171.89883423 196.8710022 C171.91238783 207.13802037 171.91843785 217.40503462 171.92284489 227.67206025 C171.92561279 234.09091604 171.92985118 240.50977033 171.93434906 246.92862511 C171.94653869 264.72307776 171.95683806 282.51752923 171.96022415 300.31198597 C171.96044372 301.44981751 171.96066328 302.58764905 171.9608895 303.75996033 C171.96110778 304.90041956 171.96132606 306.04087879 171.96155095 307.21589738 C171.96199441 309.52666271 171.96244097 311.83742803 171.96289062 314.14819336 C171.96311205 315.29439774 171.96333348 316.44060212 171.96356162 317.62153997 C171.96750584 336.17536626 171.98494975 354.72915317 172.00825015 373.28296427 C172.03201463 392.36138317 172.04442835 411.43978237 172.04559207 430.51821631 C172.04650606 441.2180408 172.05218835 451.917814 172.07041168 462.61762428 C172.08588173 471.73258077 172.09089273 480.84747012 172.08267358 489.96243725 C172.07879115 494.60504482 172.07957749 499.2475175 172.09373093 503.89010811 C172.23435438 552.90024191 163.36680556 598.35329902 128.13916016 634.73535156 C126.71790112 636.20805224 125.31987183 637.70054998 123.921875 639.1953125 C99.73571623 664.65442699 64.66020034 681.5677319 29.72265625 685.203125 C28.76875 685.31269531 27.81484375 685.42226563 26.83203125 685.53515625 C-15.67204895 689.796929 -57.69075646 677.4523866 -91.27734375 651.203125 C-95.47616671 647.73847737 -99.3843939 644.00784936 -103.27734375 640.203125 C-104.18742187 639.35492187 -105.0975 638.50671875 -106.03515625 637.6328125 C-134.48106696 610.48358148 -151.32910288 569.84827109 -152.37043035 530.70392394 C-152.40874783 526.62047695 -152.41568016 522.53812983 -152.41105652 518.45455933 C-152.41292771 516.8773824 -152.41522964 515.30020594 -152.41792184 513.72303021 C-152.4240082 509.41389538 -152.42391 505.10478004 -152.42272747 500.7956419 C-152.42252265 496.13834017 -152.4280499 491.48104457 -152.43278503 486.82374573 C-152.44107491 477.70818301 -152.44383913 468.59262677 -152.44439741 459.4770606 C-152.44487339 452.06328 -152.44693221 444.64950152 -152.45009804 437.23572159 C-152.45890029 416.19255303 -152.46351812 395.14938957 -152.46276756 374.10621916 C-152.46272761 372.97288559 -152.46268765 371.83955201 -152.46264648 370.671875 C-152.4626056 369.53714934 -152.46256472 368.40242367 -152.4625226 367.23331238 C-152.46211632 348.851453 -152.47168257 330.46961412 -152.48578485 312.08776067 C-152.50016782 293.19013151 -152.50705397 274.29251233 -152.50619107 255.39487755 C-152.50585976 244.79469507 -152.50857825 234.19453407 -152.51936913 223.59435654 C-152.52849945 214.56788589 -152.53062866 205.54144648 -152.5238597 196.51497321 C-152.52060717 191.91541363 -152.52049169 187.31591388 -152.52921295 182.71636009 C-152.53713536 178.49444153 -152.53558866 174.27262969 -152.52692882 170.05071355 C-152.52540635 168.5345987 -152.52716185 167.01847564 -152.5327889 165.50237046 C-152.58123712 151.50642762 -151.50308084 137.58340952 -148.15234375 123.953125 C-147.93989014 123.08453857 -147.72743652 122.21595215 -147.50854492 121.32104492 C-142.08448815 100.15942323 -132.86212644 80.36568214 -119.27734375 63.203125 C-118.61605469 62.33945312 -117.95476562 61.47578125 -117.2734375 60.5859375 C-102.74174074 42.12024548 -85.16439836 27.87073997 -64.27734375 17.203125 C-63.64441406 16.87973145 -63.01148438 16.55633789 -62.359375 16.22314453 C-43.13113143 6.54459822 -21.63998806 0.12867786 0 0 Z " fill="#FFFFFF" transform="translate(268.27734375,-0.203125)"/>
<path d="M0 0 C0.83476868 -0.0127597 1.66953735 -0.02551941 2.52960205 -0.03866577 C3.42443298 -0.04089142 4.31926392 -0.04311707 5.24121094 -0.04541016 C6.63590607 -0.05539536 6.63590607 -0.05539536 8.05877686 -0.06558228 C10.02565537 -0.07570001 11.99256815 -0.08039957 13.95947266 -0.08007812 C16.95110592 -0.08443699 19.94124624 -0.12072609 22.93261719 -0.15869141 C24.84797675 -0.16456281 26.76334329 -0.16853004 28.67871094 -0.17041016 C30.00881195 -0.19196671 30.00881195 -0.19196671 31.36578369 -0.21395874 C38.06581001 -0.16530627 43.68741736 1.29106155 48.56542969 6.10693359 C49.10876953 6.97125 49.10876953 6.97125 49.66308594 7.85302734 C50.04335937 8.43181641 50.42363281 9.01060547 50.81542969 9.60693359 C53.01817933 13.68154775 52.8770368 17.57430272 52.88330078 22.06884766 C52.8883815 22.8613945 52.89346222 23.65394135 52.8986969 24.47050476 C52.90940593 26.19578188 52.91802402 27.92107294 52.92481613 29.64636993 C52.93665912 32.40020285 52.95613707 35.15388269 52.97793579 37.90765381 C53.0392887 45.73981397 53.09307527 53.57196608 53.12695312 61.40429688 C53.06592404 91.98558206 53.06592404 91.98558206 56.72558594 122.29052734 C56.94956055 123.52222656 57.17353516 124.75392578 57.40429688 126.02294922 C57.99913841 129.0124554 58.67116137 131.95950272 59.41308594 134.91552734 C59.66799805 135.94637451 59.92291016 136.97722168 60.18554688 138.03930664 C73.71801254 190.63726833 109.10802198 236.26889211 155.64672852 263.89379883 C204.42048481 291.97864927 261.43678475 299.46722398 315.76074219 284.97802734 C350.12523047 275.37397822 379.73645884 257.54704597 405.72558594 233.29052734 C406.53769531 232.53255859 407.34980469 231.77458984 408.18652344 230.99365234 C415.12003195 224.30073876 420.95176622 216.97356797 426.72558594 209.29052734 C427.14839844 208.73913086 427.57121094 208.18773437 428.00683594 207.61962891 C449.48391268 179.54841844 462.19833121 145.19954953 466.72558594 110.29052734 C466.81282425 109.65940536 466.90006256 109.02828339 466.98994446 108.3780365 C467.97332253 100.17584519 467.89265763 91.95352536 467.92481613 83.70553017 C467.93673107 80.91772828 467.95620979 78.13007274 467.97793579 75.34233093 C468.03916485 67.42333851 468.09366717 59.50436864 468.12695312 51.58520508 C468.14792702 46.72357408 468.18323542 41.86222372 468.22771072 37.0007534 C468.24183022 35.15608205 468.25058397 33.31136121 468.25376511 31.46663857 C468.25868876 28.8872097 468.28187851 26.30852492 468.30908203 23.72924805 C468.3060759 22.97531265 468.30306976 22.22137726 468.29997253 21.44459534 C468.39885253 15.11250523 469.87761226 10.48811767 474.03808594 5.54052734 C480.04678796 0.50998611 484.9513257 -0.15941801 492.50683594 -0.10791016 C493.43854614 -0.11078033 494.37025635 -0.11365051 495.3302002 -0.11660767 C497.29354462 -0.11864262 499.25690958 -0.11315264 501.22021484 -0.10058594 C504.21595837 -0.08452427 507.21035285 -0.10045405 510.20605469 -0.11962891 C512.11881807 -0.11764637 514.03158061 -0.11380249 515.94433594 -0.10791016 C516.83511841 -0.11398285 517.72590088 -0.12005554 518.64367676 -0.12631226 C524.62028277 -0.05911516 529.06702429 0.78802382 533.58886719 5.04443359 C534.30623047 5.9396875 534.30623047 5.9396875 535.03808594 6.85302734 C535.52921875 7.45244141 536.02035156 8.05185547 536.52636719 8.66943359 C539.38891273 12.53899841 538.88072911 16.42908111 538.88671875 21.05688477 C538.89168365 21.96632843 538.89664856 22.87577209 538.90176392 23.81277466 C538.91643415 26.84052279 538.9232032 29.86821815 538.92871094 32.89599609 C538.93446787 35.01280213 538.94022554 37.12960816 538.94598389 39.24641418 C538.95651404 43.70456179 538.9623404 48.16269131 538.96582031 52.62084961 C538.97124417 58.26848868 538.99512986 63.91587913 539.02379227 69.56344128 C539.04266408 73.9504916 539.04763755 78.33748569 539.04915619 82.72457314 C539.0521393 84.80168294 539.06001603 86.87879284 539.07334137 88.95586205 C539.18591157 107.88809519 537.53457742 126.59524889 533.10058594 145.04052734 C532.84752686 146.10577637 532.59446777 147.17102539 532.33374023 148.26855469 C521.01867729 194.2202639 498.63132102 237.08082827 466.19433594 271.63427734 C464.21306591 273.76602357 462.33351566 275.92842828 460.47558594 278.16552734 C450.86924421 289.19333253 439.37994781 298.53134083 427.72558594 307.29052734 C427.12246582 307.75056152 426.5193457 308.2105957 425.89794922 308.68457031 C416.87325106 315.56290511 407.64092155 321.76983672 397.72558594 327.29052734 C396.9009082 327.75072266 396.07623047 328.21091797 395.2265625 328.68505859 C370.65380052 342.25602659 345.04163759 352.00489623 317.66308594 358.10302734 C316.73544434 358.31032471 315.80780273 358.51762207 314.85205078 358.73120117 C308.39596262 360.10307651 302.39087623 360.68459186 295.72558594 361.29052734 C295.72558594 376.47052734 295.72558594 391.65052734 295.72558594 407.29052734 C300.23811035 407.26958008 304.75063477 407.24863281 309.39990234 407.22705078 C324.29570581 407.16082372 339.19151501 407.11640533 354.08742714 407.08327866 C363.12037283 407.06265642 372.15317901 407.03454232 381.18603516 406.98876953 C389.05939495 406.94889136 396.93265371 406.92309206 404.80611169 406.91417336 C408.97480743 406.90896025 413.14321411 406.89671478 417.31181717 406.86760712 C421.23689337 406.8404224 425.16156192 406.83208843 429.08672333 406.83809662 C430.52585186 406.83699774 431.96499427 406.82906171 433.40404129 406.81370544 C435.37241963 406.79373396 437.34101755 406.80098902 439.30947876 406.80950928 C440.41009958 406.80582211 441.51072041 406.80213493 442.64469337 406.79833603 C447.79595502 407.62128139 450.90681273 410.45314566 454.47558594 414.10302734 C458.48111394 419.77752534 459.03024154 425.55852486 458.99121094 432.34912109 C458.99312439 433.09710464 458.99503784 433.8450882 458.99700928 434.61573792 C458.99836221 436.18808328 458.9947285 437.76044016 458.98632812 439.33276367 C458.97563076 441.71803308 458.98624577 444.10254687 458.99902344 446.48779297 C458.99770139 448.02490398 458.99513806 449.56201453 458.99121094 451.09912109 C458.9952594 451.8014537 458.99930786 452.50378632 459.003479 453.22740173 C458.94512971 459.49822694 458.35009522 466.26990015 453.97558594 471.10302734 C453.27175781 471.91707031 453.27175781 471.91707031 452.55371094 472.74755859 C448.12635077 476.48432626 443.97477463 477.66556094 438.26245308 477.67363739 C436.32909967 477.68722235 436.32909967 477.68722235 434.35668862 477.70108175 C432.93352096 477.69597784 431.51035432 477.69058578 430.08718872 477.68493652 C428.5697808 477.6898265 427.05237661 477.6960168 425.53497875 477.70339441 C421.3681446 477.71980359 417.20149954 477.71747403 413.03464437 477.71201944 C408.53964364 477.70935045 404.04469345 477.72387857 399.54971313 477.7361145 C390.74461775 477.75717614 381.9395882 477.76170894 373.1344706 477.75992662 C365.97792297 477.75861937 358.8213959 477.7624212 351.66485214 477.76985168 C349.60399815 477.77195086 347.54314415 477.77404846 345.48229015 477.7761445 C344.45656886 477.77718803 343.43084756 477.77823156 342.37404381 477.77930671 C322.97184911 477.798212 303.56969222 477.79715798 284.16749214 477.79033738 C266.41613712 477.78476154 248.6649264 477.80558861 230.91360511 477.83869785 C212.68852409 477.87242703 194.46351221 477.88760416 176.23839939 477.88298082 C166.00559106 477.88073538 155.77291611 477.88599037 145.54013443 477.91087341 C136.8287018 477.93187652 128.11747569 477.93548834 119.4060346 477.91657382 C114.96142866 477.90740992 110.51720788 477.90629286 106.07263184 477.92692947 C102.00251315 477.94561844 97.93309565 477.94115982 93.86300384 477.91838366 C92.39198631 477.9141926 90.92091524 477.91841505 89.44995429 477.9319796 C81.34434109 478.00162543 74.94337629 477.92992918 68.72558594 472.29052734 C65.06142487 468.34450774 63.61277525 465.36269615 63.56445312 460.00610352 C63.55484558 459.14478317 63.54523804 458.28346283 63.53533936 457.39604187 C63.53108948 456.46790176 63.5268396 455.53976166 63.52246094 454.58349609 C63.51676086 453.625345 63.51106079 452.66719391 63.50518799 451.68000793 C63.49574049 449.65167342 63.489205 447.62332356 63.48535156 445.5949707 C63.47565596 442.50037665 63.44463417 439.40644962 63.41308594 436.31201172 C63.40655464 434.34001045 63.40130467 432.36800443 63.39746094 430.39599609 C63.38511414 429.47392868 63.37276733 428.55186127 63.36004639 427.60185242 C63.3810147 421.51784095 64.15860913 417.07336357 68.44433594 412.42724609 C69.03214844 411.94900391 69.61996094 411.47076172 70.22558594 410.97802734 C70.81339844 410.48689453 71.40121094 409.99576172 72.00683594 409.48974609 C75.48415633 407.06352482 78.64219633 407.1668239 82.7429657 407.17027283 C84.00079865 407.16889816 85.25863159 407.1675235 86.55458069 407.16610718 C87.95101952 407.16964632 89.34745812 407.17328113 90.74389648 407.17700195 C92.2123006 407.17728398 93.68070485 407.17712578 95.14910889 407.17655945 C99.13848574 407.17627209 103.12783264 407.18215891 107.11720252 407.18913341 C111.28523085 407.19537715 115.45325983 407.19597155 119.62129211 407.19715881 C127.51541795 407.20026911 135.40952997 407.20847845 143.30364972 407.2185083 C152.29024533 407.22967879 161.27684158 407.23518225 170.2634424 407.24020374 C188.75083301 407.2506613 207.23820467 407.26900305 225.72558594 407.29052734 C225.72558594 392.11052734 225.72558594 376.93052734 225.72558594 361.29052734 C220.44558594 360.63052734 215.16558594 359.97052734 209.72558594 359.29052734 C206.24673717 358.66688923 202.84799334 358.02119731 199.41308594 357.22802734 C198.50848633 357.01960205 197.60388672 356.81117676 196.671875 356.59643555 C178.10392515 352.11771041 159.8521448 345.7597048 142.72558594 337.29052734 C141.81824707 336.84306152 140.9109082 336.3955957 139.97607422 335.93457031 C127.67940367 329.81386111 115.84884172 323.36400397 104.72558594 315.29052734 C104.07541504 314.82146973 103.42524414 314.35241211 102.75537109 313.86914062 C85.18916663 301.12618484 67.60392017 287.06653576 53.72558594 270.29052734 C52.860625 269.31341797 51.99566406 268.33630859 51.10449219 267.32958984 C37.73961501 252.21336104 26.71332599 235.7953369 16.72558594 218.29052734 C16.12302979 217.25025391 16.12302979 217.25025391 15.50830078 216.18896484 C-7.19608654 176.71989784 -17.61073136 131.29607473 -17.57519531 86.06005859 C-17.57909275 83.9688051 -17.58342954 81.87755239 -17.58818054 79.78630066 C-17.59557928 75.4405966 -17.59539455 71.09497393 -17.59008789 66.74926758 C-17.58424957 61.18668232 -17.60135932 55.62442532 -17.62443256 50.06189442 C-17.63915675 45.75961877 -17.64004428 41.45742295 -17.63692284 37.15512657 C-17.637435 35.10304798 -17.642653 33.0509648 -17.65273476 30.9989109 C-17.66507939 28.13992273 -17.65832333 25.28158525 -17.64672852 22.42260742 C-17.65437225 21.58256668 -17.66201599 20.74252594 -17.66989136 19.87702942 C-17.61977453 14.28236475 -16.72074921 9.97823423 -12.80957031 5.68115234 C-8.5723124 2.39924436 -5.43294506 0.0566696 0 0 Z " fill="#FFFFFF" transform="translate(17.2744140625,426.70947265625)"/>
</svg>
