<?xml version="1.0" encoding="UTF-8"?>
<svg version="1.1" xmlns="http://www.w3.org/2000/svg" width="225" height="224">
<path d="M0 0 C74.25 0 148.5 0 225 0 C225 73.92 225 147.84 225 224 C150.75 224 76.5 224 0 224 C0 150.08 0 76.16 0 0 Z " fill="#797979" transform="translate(0,0)"/>
<path d="M0 0 C33.33 0 66.66 0 101 0 C101 8.25 101 16.5 101 25 C102.01572826 33.37364526 102.01572826 33.37364526 105 36 C98.53309955 36.74499261 92.17436037 37.1458751 85.66650391 37.12939453 C84.35721924 37.13202301 84.35721924 37.13202301 83.02148438 37.13470459 C80.1731561 37.13906055 77.32489126 37.13620894 74.4765625 37.1328125 C72.48261503 37.13348697 70.48866765 37.13445819 68.49472046 37.13571167 C64.33420014 37.13717984 60.17370139 37.13506113 56.01318359 37.13037109 C50.68011589 37.12465199 45.34709827 37.12797213 40.01403236 37.13394356 C35.90485251 37.13755398 31.79568457 37.13640874 27.68650436 37.13381577 C25.71930307 37.13314899 23.75210069 37.13396623 21.78490067 37.13629532 C19.04228076 37.13883214 16.29974271 37.13496765 13.55712891 37.12939453 C12.33991653 37.13243088 12.33991653 37.13243088 11.09811401 37.13552856 C7.56068617 37.12219882 4.40355167 36.95124848 1 36 C0.97494385 35.14768799 0.9498877 34.29537598 0.92407227 33.41723633 C0.82864431 30.23955034 0.72942876 27.06201106 0.62768555 23.88452148 C0.5845116 22.51217224 0.54282499 21.13977533 0.50268555 19.76733398 C0.44455608 17.78877932 0.3805429 15.8104003 0.31640625 13.83203125 C0.27974854 12.64327393 0.24309082 11.4545166 0.20532227 10.22973633 C0.07948007 7.05207778 0.07948007 7.05207778 -0.58227539 4.19799805 C-1 2 -1 2 0 0 Z " fill="#373737" transform="translate(90,0)"/>
<path d="M0 0 C11.22 0 22.44 0 34 0 C34 12.54 34 25.08 34 38 C-15.83 38 -65.66 38 -117 38 C-117 37.67 -117 37.34 -117 37 C-116.14466895 36.99503478 -116.14466895 36.99503478 -115.27205849 36.98996925 C-101.4098894 36.90881827 -87.54783183 36.81662561 -73.68581581 36.71247292 C-66.98229896 36.6623091 -60.27879456 36.61586675 -53.57519531 36.578125 C-47.11069989 36.54135833 -40.64633854 36.49502219 -34.18195724 36.44193649 C-31.71073117 36.42334659 -29.23947632 36.4082558 -26.76820755 36.39665604 C-23.31749878 36.37987208 -19.8671002 36.3508563 -16.41650391 36.31884766 C-15.38576248 36.31668747 -14.35502106 36.31452728 -13.29304504 36.31230164 C-11.8879644 36.29555641 -11.8879644 36.29555641 -10.45449829 36.2784729 C-9.63778971 36.27294214 -8.82108112 36.26741138 -7.97962379 36.26171303 C-5.76799265 36.17354715 -5.76799265 36.17354715 -4 34 C-1.375 33.375 -1.375 33.375 1 33 C0.85780029 32.40574219 0.71560059 31.81148437 0.5690918 31.19921875 C-0.86873834 24.71985106 -1.27674389 18.62283576 -1.1875 12 C-1.1865332 10.59041016 -1.1865332 10.59041016 -1.18554688 9.15234375 C-1.14106346 2.28212691 -1.14106346 2.28212691 0 0 Z " fill="#646464" transform="translate(191,0)"/>
<path d="M0 0 C10.56 0 21.12 0 32 0 C31.67 2.31 31.34 4.62 31 7 C30.91490976 8.92962181 30.86949691 10.86147313 30.8671875 12.79296875 C30.86589844 13.83517578 30.86460938 14.87738281 30.86328125 15.95117188 C30.86908203 17.5531543 30.86908203 17.5531543 30.875 19.1875 C30.87113281 20.26708984 30.86726563 21.34667969 30.86328125 22.45898438 C30.86457031 23.49732422 30.86585937 24.53566406 30.8671875 25.60546875 C30.86831543 26.54543701 30.86944336 27.48540527 30.87060547 28.45385742 C31.06311686 32.24197304 31.27736698 34.27736698 34 37 C29.94320623 37.02477373 25.88644194 37.04289493 21.82958984 37.05493164 C20.45035027 37.05995118 19.07111598 37.06676819 17.69189453 37.07543945 C15.70607817 37.0876092 13.72022251 37.09271633 11.734375 37.09765625 C10.54038086 37.10289307 9.34638672 37.10812988 8.11621094 37.11352539 C5.53305383 37.01941946 3.44991581 36.76626155 1 36 C0.97494385 35.14768799 0.9498877 34.29537598 0.92407227 33.41723633 C0.82864431 30.23955034 0.72942876 27.06201106 0.62768555 23.88452148 C0.5845116 22.51217224 0.54282499 21.13977533 0.50268555 19.76733398 C0.44455608 17.78877932 0.3805429 15.8104003 0.31640625 13.83203125 C0.27974854 12.64327393 0.24309082 11.4545166 0.20532227 10.22973633 C0.07948007 7.05207778 0.07948007 7.05207778 -0.58227539 4.19799805 C-1 2 -1 2 0 0 Z " fill="#3A3A3A" transform="translate(90,0)"/>
<path d="M0 0 C0.80211914 0.00249756 1.60423828 0.00499512 2.43066406 0.00756836 C3.94225098 0.02122437 3.94225098 0.02122437 5.484375 0.03515625 C8.701875 0.05578125 11.919375 0.07640625 15.234375 0.09765625 C15.234375 11.97765625 15.234375 23.85765625 15.234375 36.09765625 C-3.90848214 37.38337054 -3.90848214 37.38337054 -12.765625 36.09765625 C-12.29125 35.45828125 -11.816875 34.81890625 -11.328125 34.16015625 C-9.27002859 30.12628729 -9.09918211 26.561644 -8.765625 22.09765625 C-8.57983702 20.43079787 -8.39232046 18.7641313 -8.203125 17.09765625 C-7.08111989 8.90406703 -7.08111989 8.90406703 -8.765625 1.09765625 C-5.76855805 0.22802538 -3.11605974 -0.01997474 0 0 Z " fill="#484848" transform="translate(126.765625,-0.09765625)"/>
<path d="M0 0 C0.84433594 0.00322266 1.68867188 0.00644531 2.55859375 0.00976562 C3.86763672 0.02233398 3.86763672 0.02233398 5.203125 0.03515625 C6.09128906 0.03966797 6.97945312 0.04417969 7.89453125 0.04882812 C10.08079829 0.06058225 12.26692679 0.07701376 14.453125 0.09765625 C14.44265137 0.80784912 14.43217773 1.51804199 14.42138672 2.24975586 C14.37945014 5.51151904 14.35368014 8.77322521 14.328125 12.03515625 C14.31136719 13.15212891 14.29460937 14.26910156 14.27734375 15.41992188 C14.23889399 21.97560518 14.60295674 27.79026447 16.453125 34.09765625 C17.113125 34.75765625 17.773125 35.41765625 18.453125 36.09765625 C6.76659718 37.60559532 -4.85172956 37.4342443 -16.546875 36.09765625 C-16.546875 35.76765625 -16.546875 35.43765625 -16.546875 35.09765625 C-15.92039063 35.04867187 -15.29390625 34.9996875 -14.6484375 34.94921875 C-13.83117187 34.87445313 -13.01390625 34.7996875 -12.171875 34.72265625 C-11.35976562 34.65304688 -10.54765625 34.5834375 -9.7109375 34.51171875 C-7.34353309 34.26873037 -7.34353309 34.26873037 -5.546875 32.09765625 C-5.32180116 29.22138796 -5.22257094 26.47312601 -5.234375 23.59765625 C-5.21826172 22.81261719 -5.20214844 22.02757813 -5.18554688 21.21875 C-5.14732823 18.67580013 -5.14732823 18.67580013 -5.546875 15.09765625 C-6.536875 14.43765625 -7.526875 13.77765625 -8.546875 13.09765625 C-8.83984375 10.27734375 -8.83984375 10.27734375 -8.734375 6.97265625 C-8.69376953 5.32910156 -8.69376953 5.32910156 -8.65234375 3.65234375 C-8.61753906 2.80929687 -8.58273438 1.96625 -8.546875 1.09765625 C-5.6220117 0.25573843 -3.03945844 -0.02053688 0 0 Z " fill="#3A3A3A" transform="translate(176.546875,-0.09765625)"/>
<path d="M0 0 C4.29 0 8.58 0 13 0 C12.83757812 0.94617187 12.67515625 1.89234375 12.5078125 2.8671875 C11.83125792 7.61741348 11.8537742 12.33504559 11.875 17.125 C11.87113281 18.00542969 11.86726563 18.88585937 11.86328125 19.79296875 C11.69393919 29.14429653 11.69393919 29.14429653 16 37 C14.25008666 37.02715383 12.50005055 37.04646551 10.75 37.0625 C9.77546875 37.07410156 8.8009375 37.08570313 7.796875 37.09765625 C5.32513755 37.01135257 3.36653536 36.6403827 1 36 C0.97494385 35.14768799 0.9498877 34.29537598 0.92407227 33.41723633 C0.82864431 30.23955034 0.72942876 27.06201106 0.62768555 23.88452148 C0.5845116 22.51217224 0.54282499 21.13977533 0.50268555 19.76733398 C0.44455608 17.78877932 0.3805429 15.8104003 0.31640625 13.83203125 C0.27974854 12.64327393 0.24309082 11.4545166 0.20532227 10.22973633 C0.07948007 7.05207778 0.07948007 7.05207778 -0.58227539 4.19799805 C-1 2 -1 2 0 0 Z " fill="#030303" transform="translate(90,0)"/>
<path d="M0 0 C3.3 0 6.6 0 10 0 C9.835 1.03125 9.67 2.0625 9.5 3.125 C9.06678152 6.48244326 8.91764297 9.62336157 9 13 C8.01 13 7.02 13 6 13 C6 17.95 6 22.9 6 28 C6.99 28.33 7.98 28.66 9 29 C10.125 31.9375 10.125 31.9375 11 35 C11.33 35.66 11.66 36.32 12 37 C4.08 37 -3.84 37 -12 37 C-12 36.67 -12 36.34 -12 36 C-9.36 35.67 -6.72 35.34 -4 35 C-4.02356567 33.87972412 -4.02356567 33.87972412 -4.04760742 32.73681641 C-4.10981077 29.36628739 -4.1489442 25.99587888 -4.1875 22.625 C-4.21263672 21.449375 -4.23777344 20.27375 -4.26367188 19.0625 C-4.27817383 17.38027344 -4.27817383 17.38027344 -4.29296875 15.6640625 C-4.3086792 14.62717285 -4.32438965 13.5902832 -4.34057617 12.52197266 C-4.22818604 11.68972168 -4.1157959 10.8574707 -4 10 C-3.01 9.34 -2.02 8.68 -1 8 C-0.83333333 5 -0.83333333 5 -1 2 C-0.67 1.34 -0.34 0.68 0 0 Z " fill="#020202" transform="translate(142,0)"/>
</svg>
