<?xml version="1.0" encoding="UTF-8"?>
<svg version="1.1" xmlns="http://www.w3.org/2000/svg" width="449" height="112">
<path d="M0 0 C148.17 0 296.34 0 449 0 C449 36.96 449 73.92 449 112 C300.83 112 152.66 112 0 112 C0 75.04 0 38.08 0 0 Z " fill="#464646" transform="translate(0,0)"/>
<path d="M0 0 C67.32 0 134.64 0 204 0 C204 27.39 204 54.78 204 83 C138.99 83 73.98 83 7 83 C7 82.34 7 81.68 7 81 C6.34 81 5.68 81 5 81 C5 80.34 5 79.68 5 79 C4.34 78.67 3.68 78.34 3 78 C-0.36656727 71.32646831 -0.53940891 64.19538762 -0.6875 56.875 C-0.72020996 55.69953613 -0.75291992 54.52407227 -0.78662109 53.31298828 C-1.05632927 42.1693313 -1.10104419 31.02149816 -1.125 19.875 C-1.12776947 18.99954529 -1.13053894 18.12409058 -1.13339233 17.22210693 C-1.13916303 14.72875607 -1.13741931 12.23553846 -1.1328125 9.7421875 C-1.13478134 8.98824707 -1.13675018 8.23430664 -1.13877869 7.45751953 C-1.1153632 2.2307264 -1.1153632 2.2307264 0 0 Z " fill="#3C3C3C" transform="translate(245,0)"/>
<path d="M0 0 C22.77 0 45.54 0 69 0 C68.67 2.31 68.34 4.62 68 7 C67.91656024 8.82819505 67.87223567 10.65867208 67.87060547 12.48876953 C67.86587723 14.02538742 67.86587723 14.02538742 67.86105347 15.5930481 C67.8630777 16.67867035 67.86510193 17.7642926 67.8671875 18.8828125 C67.86575241 20.5814595 67.86575241 20.5814595 67.86428833 22.31442261 C67.86360996 24.69968725 67.86544028 27.08495378 67.86962891 29.47021484 C67.87499193 33.11950824 67.86966714 36.76867911 67.86328125 40.41796875 C67.8639419 42.7395836 67.86522278 45.06119838 67.8671875 47.3828125 C67.86415115 49.01731857 67.86415115 49.01731857 67.86105347 50.68484497 C67.86420563 51.70295258 67.86735779 52.72106018 67.87060547 53.77001953 C67.87140106 54.66157745 67.87219666 55.55313538 67.87301636 56.47171021 C68.00349316 59.06955014 68.46337308 61.45888726 69 64 C69 65.66666667 69 67.33333333 69 69 C69.93461962 75.23079744 71.46290869 78.46290869 76 83 C53.23 83 30.46 83 7 83 C7 82.34 7 81.68 7 81 C6.34 81 5.68 81 5 81 C5 80.34 5 79.68 5 79 C4.34 78.67 3.68 78.34 3 78 C-0.36656727 71.32646831 -0.53940891 64.19538762 -0.6875 56.875 C-0.72020996 55.69953613 -0.75291992 54.52407227 -0.78662109 53.31298828 C-1.05632927 42.1693313 -1.10104419 31.02149816 -1.125 19.875 C-1.12776947 18.99954529 -1.13053894 18.12409058 -1.13339233 17.22210693 C-1.13916303 14.72875607 -1.13741931 12.23553846 -1.1328125 9.7421875 C-1.13478134 8.98824707 -1.13675018 8.23430664 -1.13877869 7.45751953 C-1.1153632 2.2307264 -1.1153632 2.2307264 0 0 Z " fill="#2D2D2D" transform="translate(245,0)"/>
<path d="M0 0 C0.9653064 0.00141495 1.93061279 0.0028299 2.9251709 0.00428772 C5.98139665 0.00984545 9.03754673 0.02238995 12.09375 0.03515625 C14.17708227 0.04017672 16.2604157 0.04473867 18.34375 0.04882812 C23.42711209 0.05980101 28.51041826 0.07703614 33.59375 0.09765625 C33.59152939 0.69661713 33.58930878 1.295578 33.58702087 1.91268921 C33.56460936 8.2412658 33.54969674 14.56983082 33.53881836 20.8984375 C33.53384102 23.24902811 33.52705674 25.59961571 33.51831055 27.95019531 C33.45125449 44.69193779 33.45125449 44.69193779 34.00390625 61.421875 C34.05610573 62.4876326 34.05610573 62.4876326 34.10935974 63.57492065 C34.43278652 68.87931499 35.53860044 73.21667604 37.59375 78.09765625 C37.92375 79.08765625 38.25375 80.07765625 38.59375 81.09765625 C39.25375 81.09765625 39.91375 81.09765625 40.59375 81.09765625 C40.59375 81.75765625 40.59375 82.41765625 40.59375 83.09765625 C105.60375 83.09765625 170.61375 83.09765625 237.59375 83.09765625 C237.59375 83.42765625 237.59375 83.75765625 237.59375 84.09765625 C134.96375 84.09765625 32.33375 84.09765625 -73.40625 84.09765625 C-73.07625 83.10765625 -72.74625 82.11765625 -72.40625 81.09765625 C-55.90625 80.76765625 -39.40625 80.43765625 -22.40625 80.09765625 C-22.42365234 74.22919922 -22.42365234 74.22919922 -22.44140625 68.2421875 C-22.44920519 64.45271892 -22.4552772 60.66325124 -22.46118164 56.8737793 C-22.46621013 54.24031168 -22.47303375 51.60684686 -22.48168945 48.97338867 C-22.49381988 45.18798127 -22.49949318 41.40261079 -22.50390625 37.6171875 C-22.50906754 36.43993607 -22.51422882 35.26268463 -22.51954651 34.04975891 C-22.51962204 32.94899521 -22.51969757 31.84823151 -22.51977539 30.71411133 C-22.521996 29.74814529 -22.52421661 28.78217926 -22.52650452 27.78694153 C-22.40728217 25.12073902 -21.98561209 22.69840412 -21.40625 20.09765625 C-21.22157864 18.59976631 -21.05432946 17.09960507 -20.90625 15.59765625 C-20.56531971 12.38012661 -20.10886211 9.25941076 -19.40625 6.09765625 C-19.1278125 4.70546875 -19.1278125 4.70546875 -18.84375 3.28515625 C-18.699375 2.56328125 -18.555 1.84140625 -18.40625 1.09765625 C-12.22687297 0.18651341 -6.24077139 -0.03496737 0 0 Z " fill="#555555" transform="translate(211.40625,-0.09765625)"/>
<path d="M0 0 C0.88015778 0.00007553 1.76031555 0.00015106 2.66714478 0.00022888 C3.57797821 0.00539017 4.48881165 0.01055145 5.42724609 0.01586914 C6.3897226 0.01728409 7.3521991 0.01869904 8.34384155 0.02015686 C11.37948891 0.02569732 14.41505901 0.03823823 17.45068359 0.05102539 C19.52490127 0.0560481 21.59912011 0.06060965 23.67333984 0.06469727 C28.72415029 0.07564716 33.7749039 0.09286975 38.82568359 0.11352539 C38.58169579 1.61128258 38.58169579 1.61128258 38.33277893 3.13929749 C37.78317328 7.00671234 37.70547585 10.79199395 37.7121582 14.70117188 C37.71201218 15.42395828 37.71186615 16.14674469 37.7117157 16.89143372 C37.7124066 19.2558605 37.72016007 21.62020629 37.72802734 23.98461914 C37.72989445 25.63371233 37.73131697 27.28280608 37.73231506 28.93190002 C37.7361172 33.2538712 37.74592762 37.57580831 37.75701904 41.89776611 C37.76728288 46.31538431 37.77182331 50.73300806 37.77685547 55.15063477 C37.78755212 63.80494895 37.80513007 72.459229 37.82568359 81.11352539 C44.75568359 81.44352539 51.68568359 81.77352539 58.82568359 82.11352539 C58.82568359 82.44352539 58.82568359 82.77352539 58.82568359 83.11352539 C28.63101044 83.22895806 -1.54697344 83.15367248 -31.73681641 82.61352539 C-32.4054924 82.60156757 -33.0741684 82.58960976 -33.7631073 82.57728958 C-41.90034116 82.43102185 -50.03740248 82.27660057 -58.17431641 82.11352539 C-58.17431641 81.78352539 -58.17431641 81.45352539 -58.17431641 81.11352539 C-43.98431641 80.78352539 -29.79431641 80.45352539 -15.17431641 80.11352539 C-15.17431641 54.04352539 -15.17431641 27.97352539 -15.17431641 1.11352539 C-3.92431641 -0.01147461 -3.92431641 -0.01147461 0 0 Z " fill="#323232" transform="translate(319.17431640625,-0.113525390625)"/>
<path d="M0 0 C9.57 0 19.14 0 29 0 C28.67 2.31 28.34 4.62 28 7 C27.92103492 8.39964234 27.87233614 9.80174625 27.87060547 11.20361328 C27.86745331 11.94773468 27.86430115 12.69185608 27.86105347 13.45852661 C27.8630777 14.23791595 27.86510193 15.0173053 27.8671875 15.8203125 C27.86623077 16.64199921 27.86527405 17.46368591 27.86428833 18.31027222 C27.86361155 20.03643877 27.86543057 21.76260795 27.86962891 23.48876953 C27.87499813 26.1240816 27.86965976 28.75922432 27.86328125 31.39453125 C27.86394185 33.07812537 27.86522264 34.76171939 27.8671875 36.4453125 C27.86516327 37.22875031 27.86313904 38.01218811 27.86105347 38.81936646 C27.87757106 42.68559253 28.15177442 46.23226116 29 50 C29 52.33333333 29 54.66666667 29 57 C29.27942455 58.67654729 29.60828247 60.34608154 30 62 C30.12375 62.763125 30.2475 63.52625 30.375 64.3125 C31.72499841 70.11749316 33.72816473 76.72816473 38 81 C26.45 81 14.9 81 3 81 C3.02320313 77.06191406 3.04640625 73.12382813 3.0703125 69.06640625 C3.08592959 65.23380861 3.09806264 61.40121458 3.10986328 57.56860352 C3.11875946 54.91390161 3.13352056 52.25941773 3.15087891 49.60473633 C3.1752576 45.77943201 3.18651312 41.95427434 3.1953125 38.12890625 C3.20563507 36.95042618 3.21595764 35.77194611 3.22659302 34.55775452 C3.22737507 28.7569589 2.95150849 23.43973145 1.46763611 17.81770325 C0.81252072 15.27126737 0.61582606 12.74297826 0.4375 10.125 C0.22765319 7.11862321 -0.04052798 4.87841607 -1 2 C-0.67 1.34 -0.34 0.68 0 0 Z " fill="#000000" transform="translate(172,0)"/>
<path d="M0 0 C7.26 0 14.52 0 22 0 C21.67 2.31 21.34 4.62 21 7 C20.91656024 8.82819505 20.87223567 10.65867208 20.87060547 12.48876953 C20.86745331 13.51318146 20.86430115 14.53759338 20.86105347 15.5930481 C20.8630777 16.67867035 20.86510193 17.7642926 20.8671875 18.8828125 C20.86623077 20.01524384 20.86527405 21.14767517 20.86428833 22.31442261 C20.86360996 24.69968725 20.86544028 27.08495378 20.86962891 29.47021484 C20.87499193 33.11950824 20.86966714 36.76867911 20.86328125 40.41796875 C20.8639419 42.7395836 20.86522278 45.06119838 20.8671875 47.3828125 C20.86516327 48.47248322 20.86313904 49.56215393 20.86105347 50.68484497 C20.86420563 51.70295258 20.86735779 52.72106018 20.87060547 53.77001953 C20.87140106 54.66157745 20.87219666 55.55313538 20.87301636 56.47171021 C21.00349316 59.06955014 21.46337308 61.45888726 22 64 C22 65.66666667 22 67.33333333 22 69 C22.68669262 73.57795082 23.67016443 77.67016443 27 81 C17.43 81 7.86 81 -2 81 C-1.89204445 70.7341561 -1.77999217 60.46837961 -1.66066074 50.20266151 C-1.60541979 45.43623826 -1.55199791 40.66980888 -1.50268555 35.90332031 C-1.45505929 31.3062024 -1.40271711 26.70916047 -1.34705925 22.11213303 C-1.32662781 20.35542052 -1.30791605 18.59868718 -1.29092598 16.84193802 C-1.26689942 14.38754975 -1.23684255 11.93330574 -1.20532227 9.47900391 C-1.1995668 8.74748611 -1.19381134 8.01596832 -1.18788147 7.26228333 C-1.11405216 2.22810432 -1.11405216 2.22810432 0 0 Z " fill="#000000" transform="translate(292,0)"/>
</svg>
